<?xml version="1.0" encoding="UTF-8" standalone="no"?>
<!-- Created with Inkscape (http://www.inkscape.org/) -->

<svg
   width="800"
   height="400"
   viewBox="0 0 211.66667 105.83333"
   version="1.1"
   id="svg1"
   inkscape:version="1.3.2 (091e20e, 2023-11-25)"
   sodipodi:docname="bilard.svg"
   xmlns:inkscape="http://www.inkscape.org/namespaces/inkscape"
   xmlns:sodipodi="http://sodipodi.sourceforge.net/DTD/sodipodi-0.dtd"
   xmlns="http://www.w3.org/2000/svg"
   xmlns:svg="http://www.w3.org/2000/svg">
  <sodipodi:namedview
     id="namedview1"
     pagecolor="#ffffff"
     bordercolor="#000000"
     borderopacity="0.25"
     inkscape:showpageshadow="2"
     inkscape:pageopacity="0.0"
     inkscape:pagecheckerboard="0"
     inkscape:deskcolor="#d1d1d1"
     inkscape:document-units="mm"
     inkscape:zoom="0.48622178"
     inkscape:cx="509.02697"
     inkscape:cy="559.4155"
     inkscape:window-width="1792"
     inkscape:window-height="1009"
     inkscape:window-x="0"
     inkscape:window-y="25"
     inkscape:window-maximized="0"
     inkscape:current-layer="layer1" />
  <defs
     id="defs1" />
  <g
     inkscape:label="Warstwa 1"
     inkscape:groupmode="layer"
     id="layer1">
    <rect
       style="fill:#ffffff;stroke-width:0.341283"
       id="rect1"
       width="210.59064"
       height="105.5674"
       x="0"
       y="-0.54416186" />
    <path
       style="fill:#008000;stroke-width:0.353883"
       d="M -0.37400676,72.702595 V 38.887507 H 105.7865 211.94701 V 72.702595 106.51768 H 105.7865 -0.37400676 Z"
       id="path1" />
    <path
       style="fill:#000000;stroke-width:0.384757"
       d="m 105.71054,55.964461 c -4.43743,-0.521032 -9.307691,-3.283785 -10.137123,-5.750486 -1.801328,-5.357077 4.200711,-9.786573 13.260943,-9.786573 7.7907,0 13.57156,3.334476 13.57156,7.828256 0,5.145593 -7.81063,8.752019 -16.69538,7.708803 z"
       id="path4" />
    <path
       style="fill:#000000;stroke-width:0.46815"
       d="M -0.74801746,42.339479 V 36.097676 H 105.32742 211.40286 v 6.241803 6.241809 h -43.54115 -43.54115 l -0.98154,-2.201952 c -2.17812,-4.886274 -7.4241,-7.653535 -14.5091,-7.653535 -7.08499,0 -12.331005,2.767261 -14.509119,7.653535 l -0.981535,2.201952 H 46.295622 -0.74801746 Z"
       id="path5" />
  </g>
</svg>
